<svg width="101" height="101" viewBox="0 0 101 101" fill="none" xmlns="http://www.w3.org/2000/svg">
<g filter="url(#filter0_d)">
<rect width="100" height="100" fill="#4F4F4F"/>
<rect x="0.5" y="0.5" width="99" height="99" stroke="#F2F2F2"/>
</g>
<g filter="url(#filter1_d)">
<path d="M57.5 40.2612C57.5 39.922 57.6237 39.6285 57.8711 39.3807C58.1185 39.1329 58.4115 39.0089 58.75 39.0089C59.0885 39.0089 59.3815 39.1329 59.6289 39.3807C59.8763 39.6285 60 39.922 60 40.2612C60 40.6003 59.8763 40.8938 59.6289 41.1417C59.3815 41.3895 59.0885 41.5134 58.75 41.5134C58.4115 41.5134 58.1185 41.3895 57.8711 41.1417C57.6237 40.8938 57.5 40.6003 57.5 40.2612ZM70 59.0447V61.5492H65V66.5581H62.5V61.5492H57.5V59.0447H62.5V54.0358H65V59.0447H70ZM48.0078 52.7835L55 59.7687V61.5492H30V34H65V51.5313H62.5V36.5045H32.5V44.7418L36.25 41.0047L46.25 51.0226L51.25 46.0136L60 54.7597V56.5403H58.2227L51.25 49.5356L48.0078 52.7835ZM36.25 44.5266L32.5 48.3029V59.0447H50.7227L36.25 44.5266Z" fill="#F2F2F2"/>
</g>
<defs>
<filter id="filter0_d" x="0" y="0" width="101" height="101" filterUnits="userSpaceOnUse" color-interpolation-filters="sRGB">
<feFlood flood-opacity="0" result="BackgroundImageFix"/>
<feColorMatrix in="SourceAlpha" type="matrix" values="0 0 0 0 0 0 0 0 0 0 0 0 0 0 0 0 0 0 127 0"/>
<feOffset dx="1" dy="1"/>
<feColorMatrix type="matrix" values="0 0 0 0 0.733333 0 0 0 0 0.419608 0 0 0 0 0.85098 0 0 0 1 0"/>
<feBlend mode="normal" in2="BackgroundImageFix" result="effect1_dropShadow"/>
<feBlend mode="normal" in="SourceGraphic" in2="effect1_dropShadow" result="shape"/>
</filter>
<filter id="filter1_d" x="30" y="34" width="41" height="33.5581" filterUnits="userSpaceOnUse" color-interpolation-filters="sRGB">
<feFlood flood-opacity="0" result="BackgroundImageFix"/>
<feColorMatrix in="SourceAlpha" type="matrix" values="0 0 0 0 0 0 0 0 0 0 0 0 0 0 0 0 0 0 127 0"/>
<feOffset dx="1" dy="1"/>
<feColorMatrix type="matrix" values="0 0 0 0 0.733333 0 0 0 0 0.419608 0 0 0 0 0.85098 0 0 0 1 0"/>
<feBlend mode="normal" in2="BackgroundImageFix" result="effect1_dropShadow"/>
<feBlend mode="normal" in="SourceGraphic" in2="effect1_dropShadow" result="shape"/>
</filter>
</defs>
</svg>
