<svg width="100" height="100" viewBox="0 0 100 100" fill="none" xmlns="http://www.w3.org/2000/svg">
<rect width="100" height="100" fill="#4F4F4F"/>
<g filter="url(#filter0_d)">
<path d="M62.5 43.75C62.5 44.0885 62.3763 44.3815 62.1289 44.6289C61.8815 44.8763 61.5885 45 61.25 45C60.9115 45 60.6185 44.8763 60.3711 44.6289C60.1237 44.3815 60 44.0885 60 43.75C60 43.4115 60.1237 43.1185 60.3711 42.8711C60.6185 42.6237 60.9115 42.5 61.25 42.5C61.5885 42.5 61.8815 42.6237 62.1289 42.8711C62.3763 43.1185 62.5 43.4115 62.5 43.75ZM30 35H70V53.2812C69.2578 52.474 68.4245 51.7773 67.5 51.1914V37.5H32.5V50.7227L41.25 41.9922L52.5195 53.2617C52.2331 53.5742 51.9727 53.8997 51.7383 54.2383C51.5039 54.5768 51.2695 54.9284 51.0352 55.293L41.25 45.5078L32.5 54.2773V62.5H49.4922C49.5443 62.9167 49.6094 63.3333 49.6875 63.75C49.7656 64.1667 49.8828 64.5833 50.0391 65H30V35ZM61.25 52.5C62.4609 52.5 63.5938 52.7279 64.6484 53.1836C65.7031 53.6393 66.6341 54.2643 67.4414 55.0586C68.2487 55.8529 68.8737 56.7773 69.3164 57.832C69.7591 58.8867 69.987 60.026 70 61.25C70 62.4609 69.7721 63.5938 69.3164 64.6484C68.8607 65.7031 68.2357 66.6341 67.4414 67.4414C66.6471 68.2487 65.7227 68.8737 64.668 69.3164C63.6133 69.7591 62.474 69.987 61.25 70C60.0391 70 58.9062 69.7721 57.8516 69.3164C56.7969 68.8607 55.8659 68.2357 55.0586 67.4414C54.2513 66.6471 53.6263 65.7227 53.1836 64.668C52.7409 63.6133 52.513 62.474 52.5 61.25C52.5 60.0391 52.7279 58.9062 53.1836 57.8516C53.6393 56.7969 54.2643 55.8659 55.0586 55.0586C55.8529 54.2513 56.7773 53.6263 57.832 53.1836C58.8867 52.7409 60.026 52.513 61.25 52.5ZM55 61.25C55 62.1094 55.1628 62.9167 55.4883 63.6719C55.8138 64.4271 56.2565 65.0911 56.8164 65.6641C57.3763 66.237 58.0404 66.6862 58.8086 67.0117C59.5768 67.3372 60.3906 67.5 61.25 67.5C61.862 67.5 62.4609 67.4154 63.0469 67.2461C63.6328 67.0768 64.1797 66.8164 64.6875 66.4648L56.0352 57.8125C55.6966 58.3203 55.4427 58.8672 55.2734 59.4531C55.1042 60.0391 55.013 60.638 55 61.25ZM66.4648 64.6875C66.8034 64.1797 67.0573 63.6328 67.2266 63.0469C67.3958 62.4609 67.487 61.862 67.5 61.25C67.5 60.3906 67.3372 59.5833 67.0117 58.8281C66.6862 58.0729 66.237 57.4154 65.6641 56.8555C65.0911 56.2956 64.4271 55.8464 63.6719 55.5078C62.9167 55.1693 62.1094 55 61.25 55C60.638 55 60.0391 55.0846 59.4531 55.2539C58.8672 55.4232 58.3203 55.6836 57.8125 56.0352L66.4648 64.6875Z" fill="#EB5757"/>
</g>
<defs>
<filter id="filter0_d" x="30" y="30" width="41" height="41" filterUnits="userSpaceOnUse" color-interpolation-filters="sRGB">
<feFlood flood-opacity="0" result="BackgroundImageFix"/>
<feColorMatrix in="SourceAlpha" type="matrix" values="0 0 0 0 0 0 0 0 0 0 0 0 0 0 0 0 0 0 127 0"/>
<feOffset dx="1" dy="1"/>
<feColorMatrix type="matrix" values="0 0 0 0 0.337255 0 0 0 0 0.8 0 0 0 0 0.94902 0 0 0 1 0"/>
<feBlend mode="normal" in2="BackgroundImageFix" result="effect1_dropShadow"/>
<feBlend mode="normal" in="SourceGraphic" in2="effect1_dropShadow" result="shape"/>
</filter>
</defs>
</svg>
