<svg width="33" height="36" viewBox="0 0 33 36" fill="none" preserveAspectRatio="xMidYMid meet" xmlns="http://www.w3.org/2000/svg">
<g filter="url(#filter0_d)">
<path d="M16 0C16.5667 0 17.1056 0.0333333 17.6167 0.1C18.1278 0.166667 18.6222 0.277778 19.1 0.433333C19.5778 0.588889 20.0556 0.777778 20.5333 1C21.0111 1.22222 21.4833 1.48889 21.95 1.8C22.75 2.31111 23.55 2.72778 24.35 3.05C25.15 3.37222 25.9611 3.62222 26.7833 3.8C27.6056 3.97778 28.45 4.1 29.3167 4.16667C30.1833 4.23333 31.0778 4.26667 32 4.26667V12.8C32 14.4222 31.8 15.9611 31.4 17.4167C31 18.8722 30.4389 20.25 29.7167 21.55C28.9944 22.85 28.1444 24.0833 27.1667 25.25C26.1889 26.4167 25.1278 27.5 23.9833 28.5C22.8389 29.5 21.6333 30.45 20.3667 31.35C19.1 32.25 17.8167 33.0611 16.5167 33.7833L16 34.0833L15.4833 33.7833C14.1944 33.0389 12.9167 32.2278 11.65 31.35C10.3833 30.4722 9.17222 29.5278 8.01667 28.5167C6.86111 27.5056 5.8 26.4167 4.83333 25.25C3.86667 24.0833 3.02222 22.8556 2.3 21.5667C1.57778 20.2778 1.01667 18.8944 0.616667 17.4167C0.216667 15.9389 0.0111111 14.4 0 12.8V4.26667C0.922222 4.26667 1.81667 4.23333 2.68333 4.16667C3.55 4.1 4.39444 3.97778 5.21667 3.8C6.03889 3.62222 6.85 3.37222 7.65 3.05C8.45 2.72778 9.25 2.31111 10.05 1.8C10.9944 1.18889 11.9389 0.738889 12.8833 0.45C13.8278 0.161111 14.8667 0.0111111 16 0Z" fill="current"/>
</g>
<defs>
<filter id="filter0_d" x="0" y="0" width="33" height="35.0833" filterUnits="userSpaceOnUse" color-interpolation-filters="sRGB">
<feFlood flood-opacity="0" result="BackgroundImageFix"/>
<feColorMatrix in="SourceAlpha" type="matrix" values="0 0 0 0 0 0 0 0 0 0 0 0 0 0 0 0 0 0 127 0"/>
<feOffset dx="1" dy="1"/>
<feColorMatrix type="matrix" values="0 0 0 0 0.337255 0 0 0 0 0.8 0 0 0 0 0.94902 0 0 0 1 0"/>
<feBlend mode="normal" in2="BackgroundImageFix" result="effect1_dropShadow"/>
<feBlend mode="normal" in="SourceGraphic" in2="effect1_dropShadow" result="shape"/>
</filter>
</defs>
</svg>
