<svg width="33" height="31" viewBox="0 0 33 31" fill="none" preserveAspectRatio="xMidYMid meet" xmlns="http://www.w3.org/2000/svg">
<g filter="url(#filter0_d)">
<path d="M21.8923 16.2678L29.713 6.858V29.713H2.28699V6.858L10.2327 16.25L16 6.858L21.8923 16.2678ZM4.57249 2.28699C4.57249 2.60839 4.51297 2.90598 4.39394 3.17976C4.2749 3.45355 4.1142 3.69162 3.91184 3.89398C3.70948 4.09635 3.46545 4.263 3.17976 4.39394C2.89408 4.52488 2.59648 4.5844 2.28699 4.57249C1.96559 4.57249 1.668 4.51297 1.39422 4.39394C1.12043 4.2749 0.882358 4.1142 0.679996 3.91184C0.477634 3.70948 0.310983 3.46545 0.180043 3.17976C0.0491026 2.89408 -0.0104157 2.59649 0.00148796 2.28699C0.00148796 1.96559 0.0610062 1.668 0.180043 1.39422C0.299079 1.12043 0.459779 0.882359 0.662141 0.679996C0.864503 0.477634 1.10853 0.310983 1.39422 0.180043C1.6799 0.0491026 1.97749 -0.0104157 2.28699 0.00148796C2.60839 0.00148796 2.90598 0.0610063 3.17976 0.180043C3.45355 0.299079 3.69162 0.459779 3.89398 0.662141C4.09634 0.864503 4.263 1.10853 4.39394 1.39422C4.52488 1.6799 4.58439 1.9775 4.57249 2.28699ZM16 4.57249C15.6786 4.57249 15.381 4.51297 15.1072 4.39394C14.8334 4.2749 14.5954 4.1142 14.393 3.91184C14.1906 3.70948 14.024 3.46545 13.8931 3.17976C13.7621 2.89408 13.7026 2.59649 13.7145 2.28699C13.7145 1.96559 13.774 1.668 13.8931 1.39422C14.0121 1.12043 14.1728 0.882359 14.3751 0.679996C14.5775 0.477634 14.8215 0.310983 15.1072 0.180043C15.3929 0.0491026 15.6905 -0.0104157 16 0.00148796C16.3214 0.00148796 16.619 0.0610063 16.8928 0.180043C17.1666 0.299079 17.4046 0.459779 17.607 0.662141C17.8094 0.864503 17.976 1.10853 18.1069 1.39422C18.2379 1.6799 18.2974 1.9775 18.2855 2.28699C18.2855 2.60839 18.226 2.90598 18.1069 3.17976C17.9879 3.45355 17.8272 3.69162 17.6248 3.89398C17.4225 4.09635 17.1785 4.263 16.8928 4.39394C16.6071 4.52488 16.3095 4.5844 16 4.57249ZM29.713 0.00148796C30.0344 0.00148796 30.332 0.0610063 30.6058 0.180043C30.8796 0.299079 31.1176 0.459779 31.32 0.662141C31.5224 0.864503 31.689 1.10853 31.82 1.39422C31.9509 1.6799 32.0104 1.9775 31.9985 2.28699C31.9985 2.60839 31.939 2.90598 31.82 3.17976C31.7009 3.45355 31.5402 3.69162 31.3379 3.89398C31.1355 4.09635 30.8915 4.263 30.6058 4.39394C30.3201 4.52488 30.0225 4.5844 29.713 4.57249C29.3916 4.57249 29.094 4.51297 28.8202 4.39394C28.5465 4.2749 28.3084 4.1142 28.106 3.91184C27.9037 3.70948 27.737 3.46545 27.6061 3.17976C27.4751 2.89408 27.4156 2.59649 27.4275 2.28699C27.4275 1.96559 27.487 1.668 27.6061 1.39422C27.7251 1.12043 27.8858 0.882359 28.0882 0.679996C28.2905 0.477634 28.5345 0.310983 28.8202 0.180043C29.1059 0.0491026 29.4035 -0.0104157 29.713 0.00148796Z" fill="#F2C94C"/>
</g>
<defs>
<filter id="filter0_d" x="0" y="0" width="33" height="30.713" filterUnits="userSpaceOnUse" color-interpolation-filters="sRGB">
<feFlood flood-opacity="0" result="BackgroundImageFix"/>
<feColorMatrix in="SourceAlpha" type="matrix" values="0 0 0 0 0 0 0 0 0 0 0 0 0 0 0 0 0 0 127 0"/>
<feOffset dx="1" dy="1"/>
<feColorMatrix type="matrix" values="0 0 0 0 0.337255 0 0 0 0 0.8 0 0 0 0 0.94902 0 0 0 1 0"/>
<feBlend mode="normal" in2="BackgroundImageFix" result="effect1_dropShadow"/>
<feBlend mode="normal" in="SourceGraphic" in2="effect1_dropShadow" result="shape"/>
</filter>
</defs>
</svg>
